# xmcd
#
# Track frame offsets: 
#        150
#        23753
#        46594
#        63277
#        86107
#        121086
#        144613
#        164810
#        178616
#        202049
#        216127
#        239145
#        257723
#        274218
#
# Disc length: 4536 seconds
#
# Revision: 0
# Processed by: cddbd v1.5.2PL0 Copyright (c) Steve Scherf et al.
# Submitted via: ExactAudioCopyFreeDBPlugin 1.0
#
DISCID=d211b60e
DTITLE=Blind Mississippi Morris - Greatest Hits
DYEAR=2011
DGENRE=Blues
TTITLE0=Wrecking Ball
TTITLE1=This Morining Before Sunrise
TTITLE2=Highway 61
TTITLE3=When A Woman Gets In Trouble
TTITLE4=Juke
TTITLE5=Hound Dog
TTITLE6=Second Hand Store
TTITLE7=Juke Joint Jumpin'
TTITLE8=Times Like Deese
TTITLE9=Small Town Blues
TTITLE10=Junk Yard Dog
TTITLE11=Just Like A Woman
TTITLE12=Sweet Black Nena
TTITLE13=Rosie Mae
EXTD=
EXTT0=
EXTT1=
EXTT2=
EXTT3=
EXTT4=
EXTT5=
EXTT6=
EXTT7=
EXTT8=
EXTT9=
EXTT10=
EXTT11=
EXTT12=
EXTT13=
PLAYORDER=
